<svg width="60" height="61" viewBox="0 0 60 61" fill="none" xmlns="http://www.w3.org/2000/svg">
<g opacity="0.5">
<path d="M25.3846 37.4231C24.9283 37.4229 24.4824 37.2874 24.1031 37.0338C23.7238 36.7802 23.4282 36.4199 23.2536 35.9983C23.079 35.5768 23.0333 35.113 23.1223 34.6655C23.2112 34.218 23.4308 33.8069 23.7534 33.4841L46.5332 10.7043C45.3542 10.0642 44.0338 9.72951 42.6923 9.73076H8.07692C5.93549 9.73305 3.88243 10.5847 2.36821 12.099C0.853985 13.6132 0.00229071 15.6663 0 17.8077V52.4231C0.00229071 54.5645 0.853985 56.6176 2.36821 58.1318C3.88243 59.646 5.93549 60.4977 8.07692 60.5H42.6923C44.8337 60.4977 46.8868 59.646 48.401 58.1318C49.9152 56.6176 50.7669 54.5645 50.7692 52.4231V17.8077C50.7705 16.4662 50.4358 15.1457 49.7957 13.9668L27.0159 36.7466C26.8021 36.9615 26.5478 37.1318 26.2679 37.2479C25.9879 37.364 25.6877 37.4236 25.3846 37.4231Z" fill="white"/>
<path d="M57.692 0.5H41.5382C40.9261 0.5 40.3392 0.743131 39.9064 1.17591C39.4736 1.60868 39.2305 2.19565 39.2305 2.80769C39.2305 3.41973 39.4736 4.0067 39.9064 4.43948C40.3392 4.87225 40.9261 5.11538 41.5382 5.11538H52.1204L46.5329 10.7043C47.9127 11.4538 49.0459 12.587 49.7954 13.9668L55.3843 8.37932V18.9615C55.3843 19.5736 55.6274 20.1605 56.0602 20.5933C56.493 21.0261 57.08 21.2692 57.692 21.2692C58.304 21.2692 58.891 21.0261 59.3238 20.5933C59.7566 20.1605 59.9997 19.5736 59.9997 18.9615V2.80769C59.9997 2.19565 59.7566 1.60868 59.3238 1.17591C58.891 0.743131 58.304 0.5 57.692 0.5Z" fill="white"/>
</g>
</svg>
