<svg width="1920" height="824" viewBox="0 0 1920 824" fill="none" xmlns="http://www.w3.org/2000/svg">
<g clip-path="url(#clip0)">
<path d="M0 0H1920V824H0V0Z" fill="url(#paint0_linear)"/>
<path d="M0 0H1920V824H0V0Z" fill="url(#paint1_linear)"/>
<path d="M1739.78 863.519C1788.26 912.001 1866.45 912.41 1914.43 864.431C1962.41 816.452 1962 738.263 1913.52 689.781C1865.04 641.299 1786.85 640.89 1738.87 688.869C1690.89 736.849 1691.3 815.037 1739.78 863.519ZM1756.86 846.442C1717.91 807.492 1717.57 744.669 1756.12 706.12C1794.67 667.571 1857.52 667.914 1896.45 706.849C1935.39 745.784 1935.72 808.622 1897.17 847.171C1858.62 885.72 1795.81 885.391 1756.86 846.442Z" fill="url(#paint2_linear)" fill-opacity="0.2"/>
<path d="M1235.48 917.551C1314.72 948.246 1403.58 909.561 1433.95 831.14C1464.33 752.718 1424.72 664.271 1345.47 633.576C1266.23 602.881 1177.37 641.566 1147 719.988C1116.62 798.409 1156.23 886.856 1235.48 917.551ZM1246.29 889.638C1182.62 864.978 1150.79 793.917 1175.19 730.909C1199.6 667.901 1271.03 636.823 1334.67 661.474C1398.31 686.124 1430.15 757.204 1405.74 820.212C1381.33 883.22 1309.95 914.298 1246.29 889.638Z" fill="url(#paint3_linear)" fill-opacity="0.2"/>
<path d="M-36.3716 689.289C-96.9202 709.332 -129.923 774.148 -110.088 834.069C-90.2527 893.989 -25.0955 926.312 35.4531 906.269C96.0016 886.226 129.004 821.411 109.169 761.49C89.3341 701.569 24.1769 669.247 -36.3716 689.289ZM-29.3116 710.618C19.3323 694.515 71.6889 720.478 87.6253 768.622C103.562 816.765 77.0226 868.857 28.3971 884.953C-20.2284 901.049 -72.5951 875.076 -88.5316 826.933C-104.468 778.79 -77.9555 726.72 -29.3116 710.618Z" fill="url(#paint4_linear)" fill-opacity="0.2"/>
<path d="M1715.35 809.307L1788.14 645.34L1703 704.791L1715.35 809.272L1715.35 809.307ZM1711.83 809.724L1699.48 705.243L1602.84 667.307L1711.83 809.724ZM1700.88 702.044L1785.92 642.662L1604.35 664.124L1700.88 702.044Z" fill="url(#paint5_linear)"/>
<path d="M1716.41 833.229C1788.35 824.726 1839.96 761.087 1831.69 691.078C1823.41 621.069 1758.39 571.215 1686.45 579.719C1614.51 588.222 1562.9 651.861 1571.18 721.869C1579.45 791.878 1644.47 841.732 1716.41 833.229ZM1713.47 808.31C1655.67 815.141 1603.42 775.093 1596.78 718.844C1590.13 662.595 1631.62 611.452 1689.39 604.623C1747.17 597.794 1799.43 637.856 1806.07 694.105C1812.72 750.354 1771.26 801.479 1713.47 808.31Z" fill="url(#paint6_linear)"/>
<path d="M244.387 196.352C163.711 223.057 119.738 309.419 146.166 389.258C172.595 469.097 259.411 512.164 340.087 485.459C420.762 458.754 464.735 372.392 438.307 292.553C411.879 212.714 325.062 169.647 244.387 196.352ZM253.793 224.77C318.607 203.315 388.368 237.908 409.602 302.055C430.836 366.202 395.474 435.611 330.685 457.057C265.896 478.504 196.122 443.897 174.888 379.75C153.654 315.603 188.98 246.225 253.793 224.77Z" fill="url(#paint7_linear)" fill-opacity="0.2"/>
<path d="M1134.8 276.711C1119.45 281.792 1111.08 298.225 1116.11 313.417C1121.14 328.609 1137.66 336.804 1153.01 331.722C1168.36 326.641 1176.73 310.208 1171.7 295.016C1166.67 279.824 1150.15 271.629 1134.8 276.711ZM1136.59 282.118C1148.93 278.036 1162.2 284.618 1166.24 296.824C1170.28 309.03 1163.55 322.237 1151.22 326.318C1138.9 330.399 1125.62 323.814 1121.58 311.608C1117.54 299.402 1124.26 286.2 1136.59 282.118Z" fill="url(#paint8_linear)" fill-opacity="0.1"/>
<path d="M293.143 718.045C281.053 707.306 262.64 708.299 252.012 720.263C241.385 732.227 242.57 750.629 254.659 761.368C266.749 772.107 285.163 771.114 295.79 759.15C306.418 747.186 305.232 728.784 293.143 718.045ZM289.36 722.303C299.073 730.931 300.027 745.717 291.489 755.329C282.95 764.942 268.149 765.736 258.44 757.112C248.731 748.488 247.777 733.699 256.316 724.086C264.855 714.473 279.648 713.676 289.36 722.303Z" fill="url(#paint9_linear)" fill-opacity="0.1"/>
<path d="M1947.07 -17.6478C1866.39 9.05743 1822.42 95.4186 1848.85 175.258C1875.28 255.097 1962.09 298.164 2042.77 271.459C2123.45 244.754 2167.42 158.392 2140.99 78.5533C2114.56 -1.28579 2027.75 -44.3531 1947.07 -17.6478ZM1956.48 10.77C2021.29 -10.6847 2091.05 23.9084 2112.29 88.0553C2133.52 152.202 2098.16 221.611 2033.37 243.057C1968.58 264.504 1898.81 229.897 1877.57 165.75C1856.34 101.603 1891.66 32.2247 1956.48 10.77Z" fill="url(#paint10_linear)" fill-opacity="0.2"/>
<g filter="url(#filter0_f)">
<path d="M171.534 412.556L173.171 580.08L222.103 497.326L171.551 412.585L171.534 412.556ZM174.344 410.88L224.896 495.621L320.942 491.858L174.344 410.88ZM224.947 498.881L176.076 581.537L320.892 495.147L224.947 498.881Z" fill="url(#paint11_linear)"/>
<path d="M161.461 392.489C104.083 426.717 85.0306 500.488 118.904 557.27C152.777 614.053 226.743 632.333 284.12 598.105C341.498 563.876 360.551 490.106 326.677 433.324C292.804 376.541 218.838 358.261 161.461 392.489ZM173.518 412.7C219.614 385.202 279.046 399.881 306.262 445.502C333.477 491.124 318.149 550.417 272.07 577.905C225.992 605.393 166.547 590.706 139.331 545.084C112.115 499.463 127.421 440.199 173.518 412.7Z" fill="url(#paint12_linear)"/>
</g>
<path d="M166.655 412.423L168.293 579.947L217.224 497.193L166.672 412.452L166.655 412.423ZM169.465 410.746L220.017 495.488L316.063 491.725L169.465 410.746ZM220.068 498.747L171.197 581.404L316.013 495.014L220.068 498.747Z" fill="url(#paint13_linear)"/>
<path d="M156.582 392.356C99.2046 426.585 80.1516 500.355 114.025 557.137C147.898 613.92 221.864 632.2 279.241 597.972C336.619 563.744 355.672 489.973 321.798 433.191C287.925 376.409 213.959 358.128 156.582 392.356ZM168.639 412.567C214.735 385.069 274.167 399.748 301.383 445.37C328.598 490.992 313.27 550.284 267.191 577.772C221.113 605.261 161.668 590.574 134.452 544.952C107.236 499.33 122.543 440.066 168.639 412.567Z" fill="url(#paint14_linear)"/>
<path d="M1529.24 217.174C1472.22 236.048 1441.14 297.086 1459.82 353.513C1478.5 409.941 1539.86 440.38 1596.88 421.505C1653.89 402.631 1684.97 341.594 1666.29 285.166C1647.62 228.738 1586.26 198.299 1529.24 217.174ZM1535.89 237.259C1581.69 222.095 1631 246.545 1646.01 291.882C1661.01 337.219 1636.02 386.274 1590.23 401.432C1544.44 416.59 1495.13 392.131 1480.12 346.794C1465.11 301.457 1490.08 252.422 1535.89 237.259Z" fill="url(#paint15_linear)" fill-opacity="0.2"/>
<g filter="url(#filter1_f)">
<path d="M1585.59 385.23L1504.81 290.468L1516.47 361.599L1585.57 385.222L1585.59 385.23ZM1584.8 387.56L1515.7 363.937L1462.95 413.043L1584.8 387.56ZM1514.11 362.102L1502.46 291.057L1461.41 411.143L1514.11 362.102Z" fill="url(#paint16_linear)"/>
<path d="M1600.88 391.744C1617.15 344.165 1592.8 292.767 1546.5 276.938C1500.2 261.109 1449.48 286.846 1433.22 334.425C1416.95 382.004 1441.3 433.401 1487.6 449.23C1533.9 465.059 1584.62 439.323 1600.88 391.744ZM1584.4 386.11C1571.33 424.334 1530.59 445.019 1493.39 432.301C1456.19 419.583 1436.63 378.266 1449.69 340.056C1462.75 301.846 1503.51 281.159 1540.71 293.877C1577.91 306.595 1597.47 347.885 1584.4 386.11Z" fill="url(#paint17_linear)"/>
</g>
<path d="M1586.62 390.793L1505.83 296.031L1517.5 367.162L1586.6 390.785L1586.62 390.793ZM1585.82 393.123L1516.72 369.5L1463.98 418.607L1585.82 393.123ZM1515.14 367.666L1503.49 296.62L1462.44 416.706L1515.14 367.666Z" fill="url(#paint18_linear)"/>
<path d="M1601.91 397.307C1618.17 349.728 1593.83 298.331 1547.53 282.501C1501.23 266.672 1450.51 292.409 1434.24 339.988C1417.98 387.567 1442.32 438.964 1488.63 454.793C1534.93 470.622 1585.64 444.886 1601.91 397.307ZM1585.43 391.673C1572.36 429.897 1531.61 450.582 1494.41 437.864C1457.21 425.146 1437.65 383.829 1450.72 345.619C1463.78 307.409 1504.54 286.722 1541.74 299.44C1578.94 312.158 1598.5 353.448 1585.43 391.673Z" fill="url(#paint19_linear)"/>
<circle opacity="0.2" cx="1410.02" cy="260.021" r="22.7474" transform="rotate(39.4837 1410.02 260.021)" fill="url(#paint20_linear)"/>
<circle opacity="0.2" cx="98.0221" cy="265.021" r="22.7474" transform="rotate(39.4837 98.0221 265.021)" fill="url(#paint21_linear)"/>
<circle opacity="0.2" cx="198.023" cy="754.021" r="22.7474" transform="rotate(-22.8168 198.023 754.021)" fill="url(#paint22_linear)"/>
<path d="M623.014 603.24L570.022 664.584L614.257 650.192L623.011 603.256L623.014 603.24ZM624.57 603.531L615.817 650.466L651.89 679.823L624.57 603.531ZM614.793 651.666L570.61 666.042L650.82 681.001L614.793 651.666Z" fill="url(#paint23_linear)" fill-opacity="0.3"/>
<path d="M625.776 592.744C593.997 586.81 563.49 607.493 557.631 638.945C551.772 670.396 572.782 700.699 604.561 706.633C636.339 712.567 666.847 691.884 672.706 660.432C678.564 628.981 657.554 598.678 625.776 592.744ZM623.69 603.939C649.221 608.706 666.106 633.051 661.399 658.321C656.691 683.591 632.166 700.21 606.645 695.445C581.124 690.679 564.237 666.327 568.944 641.057C573.651 615.787 598.16 599.171 623.69 603.939Z" fill="url(#paint24_linear)" fill-opacity="0.3"/>
<path d="M730.879 238.813L731.244 157.751L706.999 197.451L730.871 238.799L730.879 238.813ZM729.508 239.605L705.636 198.256L659.141 199.413L729.508 239.605ZM705.633 196.679L729.849 157.026L659.188 197.822L705.633 196.679Z" fill="url(#paint25_linear)" fill-opacity="0.3"/>
<path d="M735.615 248.593C763.611 232.43 773.339 196.87 757.343 169.164C741.346 141.458 705.687 132.102 677.691 148.266C649.694 164.43 639.966 199.989 655.963 227.696C671.959 255.402 707.618 264.757 735.615 248.593ZM729.921 238.732C707.429 251.717 678.776 244.205 665.924 221.944C653.072 199.684 660.897 171.103 683.381 158.122C705.864 145.141 734.523 152.658 747.376 174.918C760.228 197.179 752.413 225.746 729.921 238.732Z" fill="url(#paint26_linear)" fill-opacity="0.3"/>
<path d="M1349.35 166.487L1402.69 137.226L1367.81 135.76L1349.36 166.477L1349.35 166.487ZM1348.33 165.875L1366.79 135.158L1349.11 105.062L1348.33 165.875ZM1367.82 134.582L1402.66 136.046L1350.17 104.513L1367.82 134.582Z" fill="url(#paint27_linear)" fill-opacity="0.3"/>
<path d="M1344.67 173.133C1365.46 185.637 1392.33 179.085 1404.68 158.496C1417.03 137.906 1410.19 111.082 1389.4 98.5769C1368.61 86.0722 1341.74 92.6248 1329.39 113.214C1317.04 133.803 1323.88 160.628 1344.67 173.133ZM1349.06 165.804C1332.36 155.758 1326.86 134.206 1336.79 117.663C1346.71 101.121 1368.31 95.8589 1385 105.901C1401.7 115.943 1407.2 137.501 1397.28 154.044C1387.35 170.586 1365.77 175.85 1349.06 165.804Z" fill="url(#paint28_linear)" fill-opacity="0.3"/>
<circle opacity="0.2" cx="583.501" cy="336.5" r="16.5" transform="rotate(39.4837 583.501 336.5)" fill="url(#paint29_linear)"/>
<circle opacity="0.2" cx="1410.38" cy="658.432" r="22.7474" transform="rotate(39.4837 1410.38 658.432)" fill="url(#paint30_linear)"/>
</g>
<defs>
<filter id="filter0_f" x="47.5742" y="320.516" width="350.433" height="349.562" filterUnits="userSpaceOnUse" color-interpolation-filters="sRGB">
<feFlood flood-opacity="0" result="BackgroundImageFix"/>
<feBlend mode="normal" in="SourceGraphic" in2="BackgroundImageFix" result="shape"/>
<feGaussianBlur stdDeviation="5" result="effect1_foregroundBlur"/>
</filter>
<filter id="filter1_f" x="1393.77" y="238.279" width="246.565" height="249.611" filterUnits="userSpaceOnUse" color-interpolation-filters="sRGB">
<feFlood flood-opacity="0" result="BackgroundImageFix"/>
<feBlend mode="normal" in="SourceGraphic" in2="BackgroundImageFix" result="shape"/>
<feGaussianBlur stdDeviation="5" result="effect1_foregroundBlur"/>
</filter>
<linearGradient id="paint0_linear" x1="1.01892e-05" y1="329.62" x2="1920" y2="329.62" gradientUnits="userSpaceOnUse">
<stop stop-color="#195CAE"/>
<stop offset="1" stop-color="#169EEB"/>
</linearGradient>
<linearGradient id="paint1_linear" x1="1205" y1="0" x2="1205" y2="824" gradientUnits="userSpaceOnUse">
<stop stop-color="#07132B"/>
<stop offset="0.597681" stop-color="#07132B" stop-opacity="0"/>
</linearGradient>
<linearGradient id="paint2_linear" x1="1739.78" y1="863.519" x2="1913.52" y2="689.781" gradientUnits="userSpaceOnUse">
<stop stop-color="#195CAE"/>
<stop offset="1" stop-color="#F3F7FA"/>
</linearGradient>
<linearGradient id="paint3_linear" x1="1235.48" y1="917.551" x2="1345.47" y2="633.576" gradientUnits="userSpaceOnUse">
<stop stop-color="#195CAE"/>
<stop offset="1" stop-color="#F3F7FA"/>
</linearGradient>
<linearGradient id="paint4_linear" x1="-36.3716" y1="689.289" x2="35.4531" y2="906.269" gradientUnits="userSpaceOnUse">
<stop stop-color="#195CAE"/>
<stop offset="1" stop-color="#F3F7FA"/>
</linearGradient>
<linearGradient id="paint5_linear" x1="1611.71" y1="742.406" x2="1797.03" y2="720.502" gradientUnits="userSpaceOnUse">
<stop stop-color="#FBB224"/>
<stop offset="1" stop-color="#FB7E24"/>
</linearGradient>
<linearGradient id="paint6_linear" x1="1571.18" y1="721.871" x2="1831.69" y2="691.079" gradientUnits="userSpaceOnUse">
<stop stop-color="#FBB224"/>
<stop offset="1" stop-color="#FB7E24"/>
</linearGradient>
<linearGradient id="paint7_linear" x1="244.387" y1="196.352" x2="340.087" y2="485.459" gradientUnits="userSpaceOnUse">
<stop stop-color="#195CAE"/>
<stop offset="1" stop-color="#F3F7FA"/>
</linearGradient>
<linearGradient id="paint8_linear" x1="1134.8" y1="276.711" x2="1153.01" y2="331.722" gradientUnits="userSpaceOnUse">
<stop stop-color="#195CAE"/>
<stop offset="1" stop-color="#F3F7FA"/>
</linearGradient>
<linearGradient id="paint9_linear" x1="293.143" y1="718.045" x2="254.659" y2="761.368" gradientUnits="userSpaceOnUse">
<stop stop-color="#195CAE"/>
<stop offset="1" stop-color="#F3F7FA"/>
</linearGradient>
<linearGradient id="paint10_linear" x1="1947.07" y1="-17.6478" x2="2042.77" y2="271.459" gradientUnits="userSpaceOnUse">
<stop stop-color="#195CAE"/>
<stop offset="1" stop-color="#F3F7FA"/>
</linearGradient>
<linearGradient id="paint11_linear" x1="284.606" y1="430.948" x2="136.805" y2="519.118" gradientUnits="userSpaceOnUse">
<stop stop-color="#24FBC7"/>
<stop offset="1" stop-color="#169EEB"/>
</linearGradient>
<linearGradient id="paint12_linear" x1="326.677" y1="433.323" x2="118.904" y2="557.27" gradientUnits="userSpaceOnUse">
<stop stop-color="#24FBC7"/>
<stop offset="1" stop-color="#169EEB"/>
</linearGradient>
<linearGradient id="paint13_linear" x1="279.727" y1="430.815" x2="131.926" y2="518.985" gradientUnits="userSpaceOnUse">
<stop stop-color="#24FBC7"/>
<stop offset="1" stop-color="#169EEB"/>
</linearGradient>
<linearGradient id="paint14_linear" x1="321.798" y1="433.19" x2="114.025" y2="557.137" gradientUnits="userSpaceOnUse">
<stop stop-color="#24FBC7"/>
<stop offset="1" stop-color="#169EEB"/>
</linearGradient>
<linearGradient id="paint15_linear" x1="1529.24" y1="217.174" x2="1596.88" y2="421.505" gradientUnits="userSpaceOnUse">
<stop stop-color="#195CAE"/>
<stop offset="1" stop-color="#F3F7FA"/>
</linearGradient>
<linearGradient id="paint16_linear" x1="1564.84" y1="310.991" x2="1522.94" y2="433.552" gradientUnits="userSpaceOnUse">
<stop stop-color="#F86363"/>
<stop offset="1" stop-color="#FF53A5"/>
</linearGradient>
<linearGradient id="paint17_linear" x1="1563.26" y1="282.669" x2="1504.36" y2="454.961" gradientUnits="userSpaceOnUse">
<stop stop-color="#F86363"/>
<stop offset="1" stop-color="#FF53A5"/>
</linearGradient>
<linearGradient id="paint18_linear" x1="1565.87" y1="316.554" x2="1523.97" y2="439.115" gradientUnits="userSpaceOnUse">
<stop stop-color="#F86363"/>
<stop offset="1" stop-color="#FF53A5"/>
</linearGradient>
<linearGradient id="paint19_linear" x1="1564.29" y1="288.232" x2="1505.39" y2="460.524" gradientUnits="userSpaceOnUse">
<stop stop-color="#F86363"/>
<stop offset="1" stop-color="#FF53A5"/>
</linearGradient>
<linearGradient id="paint20_linear" x1="1387.27" y1="255.472" x2="1432.77" y2="255.472" gradientUnits="userSpaceOnUse">
<stop stop-color="#195CAE"/>
<stop offset="1" stop-color="#169EEB"/>
</linearGradient>
<linearGradient id="paint21_linear" x1="75.2747" y1="260.472" x2="120.77" y2="260.472" gradientUnits="userSpaceOnUse">
<stop stop-color="#195CAE"/>
<stop offset="1" stop-color="#169EEB"/>
</linearGradient>
<linearGradient id="paint22_linear" x1="175.275" y1="749.472" x2="220.77" y2="749.472" gradientUnits="userSpaceOnUse">
<stop stop-color="#195CAE"/>
<stop offset="1" stop-color="#169EEB"/>
</linearGradient>
<linearGradient id="paint23_linear" x1="623.791" y1="603.385" x2="610.71" y2="673.52" gradientUnits="userSpaceOnUse">
<stop stop-color="white"/>
<stop offset="1" stop-color="white" stop-opacity="0"/>
</linearGradient>
<linearGradient id="paint24_linear" x1="625.776" y1="592.744" x2="604.511" y2="706.624" gradientUnits="userSpaceOnUse">
<stop stop-color="white"/>
<stop offset="1" stop-color="white" stop-opacity="0"/>
</linearGradient>
<linearGradient id="paint25_linear" x1="730.195" y1="239.208" x2="694.523" y2="177.422" gradientUnits="userSpaceOnUse">
<stop stop-color="white"/>
<stop offset="1" stop-color="white" stop-opacity="0"/>
</linearGradient>
<linearGradient id="paint26_linear" x1="735.615" y1="248.593" x2="677.691" y2="148.266" gradientUnits="userSpaceOnUse">
<stop stop-color="white"/>
<stop offset="1" stop-color="white" stop-opacity="0"/>
</linearGradient>
<linearGradient id="paint27_linear" x1="1348.85" y1="166.182" x2="1376.42" y2="120.282" gradientUnits="userSpaceOnUse">
<stop stop-color="white"/>
<stop offset="1" stop-color="white" stop-opacity="0"/>
</linearGradient>
<linearGradient id="paint28_linear" x1="1344.67" y1="173.133" x2="1389.48" y2="98.6249" gradientUnits="userSpaceOnUse">
<stop stop-color="white"/>
<stop offset="1" stop-color="white" stop-opacity="0"/>
</linearGradient>
<linearGradient id="paint29_linear" x1="567.001" y1="333.201" x2="600.001" y2="333.201" gradientUnits="userSpaceOnUse">
<stop stop-color="#195CAE"/>
<stop offset="1" stop-color="#169EEB"/>
</linearGradient>
<linearGradient id="paint30_linear" x1="1387.63" y1="653.884" x2="1433.12" y2="653.884" gradientUnits="userSpaceOnUse">
<stop stop-color="#195CAE"/>
<stop offset="1" stop-color="#169EEB"/>
</linearGradient>
<clipPath id="clip0">
<rect width="1920" height="824" fill="white"/>
</clipPath>
</defs>
</svg>
