<svg width="283" height="105" viewBox="0 0 283 105" fill="none" xmlns="http://www.w3.org/2000/svg">
<path d="M139.621 9.73285L102.93 72.6287L139.621 52.6349V9.74744V9.73285ZM141.043 9.73285V52.6203L177.732 72.6024L141.043 9.73285ZM140.337 53.8486L103.689 73.819H176.981L140.337 53.8486Z" fill="white"/>
<path d="M140.327 0C111.288 0 87.75 23.2934 87.75 52.031C87.75 80.7685 111.288 104.062 140.327 104.062C169.366 104.062 192.904 80.7685 192.904 52.031C192.904 23.2934 169.366 0 140.327 0ZM140.327 10.2288C163.656 10.2288 182.572 28.9418 182.572 52.031C182.572 75.1202 163.647 93.839 140.327 93.839C117.007 93.839 98.0881 75.1202 98.0881 52.031C98.0881 28.9418 116.998 10.2288 140.327 10.2288Z" fill="white"/>
<path d="M17.1399 79.018V29.4202H0V19.3081H45.9077V29.4115H28.806V79.0092L17.1399 79.018Z" fill="white"/>
<path d="M207.151 79.018V29.4202H190.662V19.3081H235.271V29.4115H218.814V79.0092L207.151 79.018Z" fill="#155CB4"/>
<path d="M49.6094 79.018V19.3081H83.9628V29.4115H58.964V42.6482H82.2256V52.7078H58.964V68.9584H84.8491V79.018H49.6094Z" fill="white"/>
<path d="M239.008 19.3081H259.831C263.954 19.3081 267.028 19.5026 269.053 19.8916C271.039 20.2669 272.904 21.1116 274.489 22.354C276.172 23.7127 277.534 25.4194 278.482 27.3546C279.569 29.5232 280.117 31.918 280.081 34.3392C280.108 37.0308 279.428 39.6831 278.108 42.0356C276.892 44.274 275.03 46.1024 272.761 47.2871C275.935 48.3452 278.375 50.1511 280.081 52.7049C281.786 55.2587 282.639 58.2589 282.639 61.7055C282.638 64.4296 282.076 67.1248 280.988 69.6265C279.884 72.1939 278.38 74.244 276.474 75.7766C274.568 77.3093 272.212 78.2536 269.407 78.6095C267.654 78.8254 263.426 78.9606 256.722 79.0151H239.008V19.3081ZM249.526 29.2481V43.0538H256.422C260.516 43.0538 263.062 42.9857 264.06 42.8495C265.862 42.6064 267.277 41.8945 268.306 40.7139C269.334 39.5333 269.849 37.9773 269.851 36.0459C269.851 34.2001 269.408 32.7005 268.521 31.5471C267.633 30.3937 266.312 29.6945 264.557 29.4494C263.515 29.3132 260.518 29.2452 255.568 29.2452L249.526 29.2481ZM249.526 52.9938V68.9584H259.263C263.054 68.9584 265.458 68.8359 266.477 68.5908C268.005 68.2912 269.368 67.4435 270.305 66.2101C271.286 64.9478 271.777 63.2576 271.777 61.1395C271.777 59.3442 271.398 57.8232 270.641 56.5765C269.883 55.3285 268.725 54.368 267.352 53.8486C265.921 53.2767 262.812 52.9918 258.026 52.9938H249.526Z" fill="#155CB4"/>
</svg>
