<svg width="28" height="30" viewBox="0 0 28 30" fill="none" xmlns="http://www.w3.org/2000/svg">
<path d="M23.3335 20.7646C22.7051 20.7644 22.0831 20.8902 21.5052 21.1345C20.9272 21.3788 20.4053 21.7365 19.971 22.186L9.18058 16.1779C9.3896 15.4012 9.3896 14.5838 9.18058 13.807L19.971 7.79898C20.7567 8.60516 21.8125 9.10017 22.9406 9.19128C24.0687 9.28238 25.1916 8.96333 26.099 8.2939C27.0065 7.62446 27.6361 6.65058 27.8701 5.55469C28.104 4.45879 27.9261 3.3161 27.3698 2.34066C26.8135 1.36523 25.9169 0.623985 24.848 0.255803C23.779 -0.112379 22.6111 -0.0822403 21.5631 0.340573C20.515 0.763387 19.6586 1.54986 19.1544 2.55267C18.6502 3.55547 18.5328 4.70579 18.8241 5.78812L8.03374 11.7962C7.38919 11.1311 6.55832 10.6721 5.648 10.4782C4.73767 10.2843 3.78954 10.3643 2.92558 10.7081C2.06162 11.0518 1.32134 11.6435 0.799969 12.407C0.278603 13.1705 0 14.071 0 14.9925C0 15.914 0.278603 16.8144 0.799969 17.578C1.32134 18.3415 2.06162 18.9332 2.92558 19.2769C3.78954 19.6206 4.73767 19.7007 5.648 19.5068C6.55832 19.3129 7.38919 18.8539 8.03374 18.1888L18.8241 24.1969C18.574 25.129 18.625 26.1152 18.97 27.0171C19.315 27.9191 19.9367 28.6915 20.7479 29.226C21.5591 29.7605 22.5191 30.0302 23.493 29.9973C24.467 29.9644 25.4061 29.6306 26.1786 29.0426C26.9511 28.4546 27.5182 27.6421 27.8002 26.7189C28.0823 25.7958 28.0653 24.8084 27.7515 23.8954C27.4377 22.9823 26.8428 22.1894 26.0505 21.6279C25.2582 21.0664 24.308 20.7645 23.3335 20.7646Z"/>
</svg>
