<svg width="22" height="30" viewBox="0 0 22 30" fill="none" xmlns="http://www.w3.org/2000/svg">
<path opacity="0.5" d="M6.28571 30H1.57143C1.15466 30 0.754961 29.8563 0.460261 29.6006C0.165561 29.3449 0 28.998 0 28.6364V1.36364C0 1.00198 0.165561 0.655132 0.460261 0.3994C0.754961 0.143669 1.15466 0 1.57143 0H6.28571C6.70248 0 7.10218 0.143669 7.39688 0.3994C7.69158 0.655132 7.85714 1.00198 7.85714 1.36364V28.6364C7.85714 28.998 7.69158 29.3449 7.39688 29.6006C7.10218 29.8563 6.70248 30 6.28571 30ZM20.4286 30H15.7143C15.2975 30 14.8978 29.8563 14.6031 29.6006C14.3084 29.3449 14.1429 28.998 14.1429 28.6364V1.36364C14.1429 1.00198 14.3084 0.655132 14.6031 0.3994C14.8978 0.143669 15.2975 0 15.7143 0H20.4286C20.8453 0 21.245 0.143669 21.5397 0.3994C21.8344 0.655132 22 1.00198 22 1.36364V28.6364C22 28.998 21.8344 29.3449 21.5397 29.6006C21.245 29.8563 20.8453 30 20.4286 30Z" fill="white"/>
</svg>
