<svg width="1920" height="220" viewBox="0 0 1920 220" fill="none" xmlns="http://www.w3.org/2000/svg">
<path fill-rule="evenodd" clip-rule="evenodd" d="M530 70C518.954 70 510.288 60.8633 507.179 50.2641C498.659 21.2136 471.807 0 440 0C408.193 0 381.341 21.2136 372.821 50.2641C369.712 60.8633 361.046 70 350 70H-21C-32.0457 70 -41 78.9543 -41 90V200C-41 211.046 -32.0457 220 -21 220H1919C1930.05 220 1939 211.046 1939 200V90C1939 78.9543 1930.05 70 1919 70H1570C1558.95 70 1550.29 60.8633 1547.18 50.2641C1538.66 21.2136 1511.81 0 1480 0C1448.19 0 1421.34 21.2136 1412.82 50.2641C1409.71 60.8633 1401.05 70 1390 70H1310C1298.95 70 1290.29 60.8633 1287.18 50.2641C1278.66 21.2136 1251.81 0 1220 0C1188.19 0 1161.34 21.2136 1152.82 50.2641C1149.71 60.8633 1141.05 70 1130 70H1050C1038.95 70 1030.29 60.8633 1027.18 50.2641C1018.66 21.2136 991.807 0 960 0C928.193 0 901.341 21.2136 892.821 50.2641C889.712 60.8633 881.046 70 870 70H790C778.954 70 770.288 60.8633 767.179 50.2641C758.659 21.2136 731.807 0 700 0C668.193 0 641.341 21.2136 632.821 50.2641C629.712 60.8633 621.046 70 610 70H530Z" fill="white"/>
</svg>
