<svg width="57" height="57" viewBox="0 0 57 57" fill="none" xmlns="http://www.w3.org/2000/svg">
<path d="M56.1264 51.2785L43.2048 38.3569C46.3157 34.2155 47.9951 29.1745 47.9894 23.9947C47.9894 10.7641 37.2253 0 23.9947 0C10.7641 0 0 10.7641 0 23.9947C0 37.2253 10.7641 47.9894 23.9947 47.9894C29.1745 47.9951 34.2155 46.3157 38.3569 43.2048L51.2785 56.1264C51.9326 56.7111 52.7858 57.0232 53.6627 56.9987C54.5397 56.9741 55.374 56.6148 55.9944 55.9944C56.6148 55.374 56.9741 54.5397 56.9987 53.6627C57.0232 52.7858 56.7111 51.9326 56.1264 51.2785ZM6.85563 23.9947C6.85563 20.6049 7.86082 17.2913 9.74409 14.4728C11.6274 11.6542 14.3041 9.45749 17.4359 8.16027C20.5676 6.86305 24.0137 6.52364 27.3384 7.18496C30.663 7.84627 33.7169 9.47861 36.1139 11.8756C38.5108 14.2725 40.1432 17.3264 40.8045 20.651C41.4658 23.9757 41.1264 27.4218 39.8292 30.5536C38.532 33.6853 36.3352 36.3621 33.5167 38.2453C30.6982 40.1286 27.3845 41.1338 23.9947 41.1338C19.4508 41.1283 15.0946 39.3209 11.8816 36.1079C8.66856 32.8948 6.86109 28.5386 6.85563 23.9947Z" fill="#F9FAFC"/>
</svg>
