<svg width="21" height="30" viewBox="0 0 21 30" fill="none" xmlns="http://www.w3.org/2000/svg">
<path opacity="0.5" d="M18.75 30C18.2703 29.9997 17.8034 29.8456 17.4178 29.5603C17.3963 29.5453 17.3766 29.5294 17.3559 29.5125L8.78156 22.4909H2.25C1.65326 22.4909 1.08097 22.2539 0.659009 21.832C0.237053 21.41 0 20.8378 0 20.241V9.75743C0 9.16072 0.237053 8.58844 0.659009 8.16651C1.08097 7.74457 1.65326 7.50752 2.25 7.50752H8.77969L17.3541 0.485949C17.3747 0.469075 17.3944 0.453138 17.4159 0.438139C17.7511 0.191334 18.1483 0.0423556 18.5631 0.00777727C18.9779 -0.0268011 19.3942 0.0543759 19.7657 0.242278C20.1371 0.43018 20.4492 0.717441 20.6671 1.0721C20.885 1.42677 21.0002 1.83493 21 2.25119V27.7501C21 28.3468 20.7629 28.9191 20.341 29.341C19.919 29.763 19.3467 30 18.75 30Z" fill="white"/>
</svg>
